<mxfile host="app.diagrams.net" modified="2022-07-10T09:31:35.333Z" agent="5.0 (Windows NT 10.0; Win64; x64) AppleWebKit/537.36 (KHTML, like Gecko) Chrome/103.0.0.0 Safari/537.36" etag="KiQ57DlHVO-bDhktCXdQ" version="20.0.4" type="github">
  <diagram id="zjv7xRD2d8CWsWP2C0z3" name="KHO_DU_LIEU">
    <mxGraphModel dx="1755" dy="1085" grid="1" gridSize="10" guides="1" tooltips="1" connect="1" arrows="1" fold="1" page="1" pageScale="1" pageWidth="2336" pageHeight="1654" math="0" shadow="0">
      <root>
        <mxCell id="0" />
        <mxCell id="1" parent="0" />
        <mxCell id="FnMIgnsUQWjK0R4eYY1A-45" style="edgeStyle=orthogonalEdgeStyle;rounded=0;orthogonalLoop=1;jettySize=auto;html=1;entryX=0;entryY=0.5;entryDx=0;entryDy=0;" edge="1" parent="1" source="FnMIgnsUQWjK0R4eYY1A-2" target="FnMIgnsUQWjK0R4eYY1A-48">
          <mxGeometry relative="1" as="geometry" />
        </mxCell>
        <mxCell id="FnMIgnsUQWjK0R4eYY1A-2" value="" style="points=[[0.25,0,0],[0.5,0,0],[0.75,0,0],[1,0.25,0],[1,0.5,0],[1,0.75,0],[0.75,1,0],[0.5,1,0],[0.25,1,0],[0,0.75,0],[0,0.5,0],[0,0.25,0]];rounded=1;arcSize=10;dashed=1;strokeColor=#000000;fillColor=none;gradientColor=none;dashPattern=8 3 1 3;strokeWidth=2;fontStyle=1;fontSize=20;" vertex="1" parent="1">
          <mxGeometry x="20" y="35" width="190" height="315" as="geometry" />
        </mxCell>
        <mxCell id="FnMIgnsUQWjK0R4eYY1A-3" value="" style="rounded=1;whiteSpace=wrap;html=1;fillColor=#eeeeee;strokeColor=#36393d;" vertex="1" parent="1">
          <mxGeometry x="370" y="255" width="470" height="380" as="geometry" />
        </mxCell>
        <mxCell id="FnMIgnsUQWjK0R4eYY1A-4" value="&lt;font style=&quot;font-size: 22px&quot;&gt;&lt;b&gt;Data Warehouse&lt;/b&gt;&lt;/font&gt;" style="text;html=1;strokeColor=none;fillColor=none;align=center;verticalAlign=middle;whiteSpace=wrap;rounded=0;" vertex="1" parent="1">
          <mxGeometry x="390" y="275" width="430" height="30" as="geometry" />
        </mxCell>
        <mxCell id="FnMIgnsUQWjK0R4eYY1A-5" value="&lt;b&gt;&lt;font style=&quot;font-size: 17px;&quot;&gt;Ingest&lt;/font&gt;&lt;/b&gt;" style="shape=singleArrow;whiteSpace=wrap;html=1;fontFamily=Times New Roman;fontSize=14;" vertex="1" parent="1">
          <mxGeometry x="370" y="175" width="130" height="80" as="geometry" />
        </mxCell>
        <mxCell id="FnMIgnsUQWjK0R4eYY1A-6" value="&lt;b&gt;&lt;font style=&quot;font-size: 17px;&quot;&gt;Transform&lt;/font&gt;&lt;/b&gt;" style="shape=singleArrow;whiteSpace=wrap;html=1;fontFamily=Times New Roman;fontSize=14;" vertex="1" parent="1">
          <mxGeometry x="500" y="175" width="100" height="80" as="geometry" />
        </mxCell>
        <mxCell id="FnMIgnsUQWjK0R4eYY1A-7" value="&lt;b&gt;&lt;font style=&quot;font-size: 17px;&quot;&gt;Curate&lt;/font&gt;&lt;/b&gt;" style="shape=singleArrow;whiteSpace=wrap;html=1;fontFamily=Times New Roman;fontSize=14;" vertex="1" parent="1">
          <mxGeometry x="600" y="175" width="110" height="80" as="geometry" />
        </mxCell>
        <mxCell id="FnMIgnsUQWjK0R4eYY1A-8" value="&lt;b&gt;&lt;font style=&quot;font-size: 17px;&quot;&gt;Analyse/Predict&lt;/font&gt;&lt;/b&gt;" style="shape=singleArrow;whiteSpace=wrap;html=1;fontFamily=Times New Roman;fontSize=14;" vertex="1" parent="1">
          <mxGeometry x="710" y="175" width="130" height="80" as="geometry" />
        </mxCell>
        <mxCell id="FnMIgnsUQWjK0R4eYY1A-14" value="" style="rounded=0;whiteSpace=wrap;html=1;fontSize=15;" vertex="1" parent="1">
          <mxGeometry x="400" y="315" width="140" height="300" as="geometry" />
        </mxCell>
        <mxCell id="FnMIgnsUQWjK0R4eYY1A-15" value="Đệm (staging/ engineering)" style="text;html=1;strokeColor=none;fillColor=none;align=center;verticalAlign=middle;whiteSpace=wrap;rounded=0;fontSize=15;" vertex="1" parent="1">
          <mxGeometry x="405" y="320" width="135" height="45" as="geometry" />
        </mxCell>
        <mxCell id="FnMIgnsUQWjK0R4eYY1A-17" value="" style="rounded=0;whiteSpace=wrap;html=1;fontSize=20;" vertex="1" parent="1">
          <mxGeometry x="540" y="315" width="140" height="300" as="geometry" />
        </mxCell>
        <mxCell id="FnMIgnsUQWjK0R4eYY1A-18" value="&lt;font style=&quot;font-size: 15px;&quot;&gt;Data store&lt;/font&gt;" style="text;html=1;strokeColor=none;fillColor=none;align=center;verticalAlign=middle;whiteSpace=wrap;rounded=0;fontSize=20;" vertex="1" parent="1">
          <mxGeometry x="550" y="320" width="120" height="30" as="geometry" />
        </mxCell>
        <mxCell id="FnMIgnsUQWjK0R4eYY1A-19" value="" style="rounded=0;whiteSpace=wrap;html=1;fontSize=15;" vertex="1" parent="1">
          <mxGeometry x="680" y="315" width="140" height="300" as="geometry" />
        </mxCell>
        <mxCell id="FnMIgnsUQWjK0R4eYY1A-20" value="Truy cập/&amp;nbsp; Phân tích dữ liệu" style="text;html=1;strokeColor=none;fillColor=none;align=center;verticalAlign=middle;whiteSpace=wrap;rounded=0;fontSize=15;" vertex="1" parent="1">
          <mxGeometry x="690" y="320" width="130" height="30" as="geometry" />
        </mxCell>
        <mxCell id="FnMIgnsUQWjK0R4eYY1A-21" value="&lt;font style=&quot;font-size: 15px;&quot;&gt;CSDL hướng dẫn viên du lịch&lt;/font&gt;" style="rounded=1;whiteSpace=wrap;html=1;" vertex="1" parent="1">
          <mxGeometry x="40" y="50" width="153" height="40" as="geometry" />
        </mxCell>
        <mxCell id="FnMIgnsUQWjK0R4eYY1A-22" value="&lt;font style=&quot;font-size: 15px;&quot;&gt;CSDL doanh nghiệp lữ hành&lt;/font&gt;" style="rounded=1;whiteSpace=wrap;html=1;" vertex="1" parent="1">
          <mxGeometry x="40" y="105" width="153" height="40" as="geometry" />
        </mxCell>
        <mxCell id="FnMIgnsUQWjK0R4eYY1A-23" value="&lt;font style=&quot;font-size: 15px;&quot;&gt;CSDL Khác&lt;/font&gt;" style="rounded=1;whiteSpace=wrap;html=1;" vertex="1" parent="1">
          <mxGeometry x="40" y="315" width="153" height="30" as="geometry" />
        </mxCell>
        <mxCell id="FnMIgnsUQWjK0R4eYY1A-24" value="&lt;font style=&quot;font-size: 15px;&quot;&gt;CSDL cơ sở lưu trú du lịch&lt;/font&gt;" style="rounded=1;whiteSpace=wrap;html=1;" vertex="1" parent="1">
          <mxGeometry x="40" y="165" width="153" height="40" as="geometry" />
        </mxCell>
        <mxCell id="FnMIgnsUQWjK0R4eYY1A-25" value="&lt;font style=&quot;font-size: 15px;&quot;&gt;CSDL Chatbot&lt;/font&gt;" style="rounded=1;whiteSpace=wrap;html=1;" vertex="1" parent="1">
          <mxGeometry x="40" y="265" width="153" height="40" as="geometry" />
        </mxCell>
        <mxCell id="FnMIgnsUQWjK0R4eYY1A-26" value="&lt;font style=&quot;font-size: 15px;&quot;&gt;CSDL từ 63 sở tỉnh thành&lt;/font&gt;" style="rounded=1;whiteSpace=wrap;html=1;" vertex="1" parent="1">
          <mxGeometry x="40" y="215" width="153" height="40" as="geometry" />
        </mxCell>
        <mxCell id="FnMIgnsUQWjK0R4eYY1A-46" style="edgeStyle=orthogonalEdgeStyle;rounded=0;orthogonalLoop=1;jettySize=auto;html=1;entryX=0;entryY=0.5;entryDx=0;entryDy=0;" edge="1" parent="1" source="FnMIgnsUQWjK0R4eYY1A-28" target="FnMIgnsUQWjK0R4eYY1A-48">
          <mxGeometry relative="1" as="geometry" />
        </mxCell>
        <mxCell id="FnMIgnsUQWjK0R4eYY1A-28" value="" style="points=[[0.25,0,0],[0.5,0,0],[0.75,0,0],[1,0.25,0],[1,0.5,0],[1,0.75,0],[0.75,1,0],[0.5,1,0],[0.25,1,0],[0,0.75,0],[0,0.5,0],[0,0.25,0]];rounded=1;arcSize=10;dashed=1;strokeColor=#000000;fillColor=none;gradientColor=none;dashPattern=8 3 1 3;strokeWidth=2;fontStyle=1;fontSize=20;" vertex="1" parent="1">
          <mxGeometry x="20" y="430" width="190" height="180" as="geometry" />
        </mxCell>
        <mxCell id="FnMIgnsUQWjK0R4eYY1A-29" value="&lt;b&gt;&lt;font style=&quot;font-size: 15px;&quot;&gt;CSDL&amp;nbsp; HIỆN TẠI&lt;/font&gt;&lt;/b&gt;" style="text;html=1;strokeColor=none;fillColor=none;align=center;verticalAlign=middle;whiteSpace=wrap;rounded=0;" vertex="1" parent="1">
          <mxGeometry x="50" y="5" width="120" height="30" as="geometry" />
        </mxCell>
        <mxCell id="FnMIgnsUQWjK0R4eYY1A-30" value="&lt;b&gt;&lt;font style=&quot;font-size: 15px;&quot;&gt;CSDL&amp;nbsp; CÁC HT XÂY DỰNG TRONG DỰ ÁN&lt;/font&gt;&lt;/b&gt;" style="text;html=1;strokeColor=none;fillColor=none;align=center;verticalAlign=middle;whiteSpace=wrap;rounded=0;" vertex="1" parent="1">
          <mxGeometry x="1.5" y="390" width="230" height="30" as="geometry" />
        </mxCell>
        <mxCell id="FnMIgnsUQWjK0R4eYY1A-31" value="CSDL app du lịch thông minh" style="rounded=1;whiteSpace=wrap;html=1;fontSize=15;" vertex="1" parent="1">
          <mxGeometry x="40" y="450" width="150" height="40" as="geometry" />
        </mxCell>
        <mxCell id="FnMIgnsUQWjK0R4eYY1A-32" value="CSDL số hóa điểm đến" style="rounded=1;whiteSpace=wrap;html=1;fontSize=15;" vertex="1" parent="1">
          <mxGeometry x="43" y="500" width="150" height="40" as="geometry" />
        </mxCell>
        <mxCell id="FnMIgnsUQWjK0R4eYY1A-33" value="CSDL Khác" style="rounded=1;whiteSpace=wrap;html=1;fontSize=15;" vertex="1" parent="1">
          <mxGeometry x="40" y="550" width="150" height="40" as="geometry" />
        </mxCell>
        <mxCell id="FnMIgnsUQWjK0R4eYY1A-47" style="edgeStyle=orthogonalEdgeStyle;rounded=0;orthogonalLoop=1;jettySize=auto;html=1;entryX=0;entryY=0.5;entryDx=0;entryDy=0;" edge="1" parent="1" source="FnMIgnsUQWjK0R4eYY1A-35" target="FnMIgnsUQWjK0R4eYY1A-48">
          <mxGeometry relative="1" as="geometry" />
        </mxCell>
        <mxCell id="FnMIgnsUQWjK0R4eYY1A-35" value="" style="points=[[0.25,0,0],[0.5,0,0],[0.75,0,0],[1,0.25,0],[1,0.5,0],[1,0.75,0],[0.75,1,0],[0.5,1,0],[0.25,1,0],[0,0.75,0],[0,0.5,0],[0,0.25,0]];rounded=1;arcSize=10;dashed=1;strokeColor=#000000;fillColor=none;gradientColor=none;dashPattern=8 3 1 3;strokeWidth=2;fontStyle=1;fontSize=20;" vertex="1" parent="1">
          <mxGeometry x="15" y="640" width="195" height="140" as="geometry" />
        </mxCell>
        <mxCell id="FnMIgnsUQWjK0R4eYY1A-36" value="&lt;b&gt;&lt;font style=&quot;font-size: 15px;&quot;&gt;CSDL&amp;nbsp; TỪ CÁC BỘ BAN NGÀNH KHÁC&lt;/font&gt;&lt;/b&gt;" style="text;html=1;strokeColor=none;fillColor=none;align=center;verticalAlign=middle;whiteSpace=wrap;rounded=0;" vertex="1" parent="1">
          <mxGeometry x="20" y="660" width="180" height="30" as="geometry" />
        </mxCell>
        <mxCell id="FnMIgnsUQWjK0R4eYY1A-37" value="Cục xuất nhập cảnh" style="rounded=1;whiteSpace=wrap;html=1;fontSize=15;" vertex="1" parent="1">
          <mxGeometry x="30" y="720" width="150" height="40" as="geometry" />
        </mxCell>
        <mxCell id="FnMIgnsUQWjK0R4eYY1A-38" value="" style="rounded=0;whiteSpace=wrap;html=1;fontSize=20;fillColor=#f5f5f5;gradientColor=#b3b3b3;strokeColor=#666666;" vertex="1" parent="1">
          <mxGeometry x="900" y="230" width="200" height="405" as="geometry" />
        </mxCell>
        <mxCell id="FnMIgnsUQWjK0R4eYY1A-39" value="&lt;b&gt;&lt;font style=&quot;font-size: 20px;&quot;&gt;Truy cập dữ liệu&lt;/font&gt;&lt;/b&gt;" style="text;html=1;strokeColor=none;fillColor=none;align=center;verticalAlign=middle;whiteSpace=wrap;rounded=0;" vertex="1" parent="1">
          <mxGeometry x="900" y="240" width="200" height="30" as="geometry" />
        </mxCell>
        <mxCell id="FnMIgnsUQWjK0R4eYY1A-40" value="Các hệ thống quản lý" style="rounded=1;whiteSpace=wrap;html=1;fontSize=20;" vertex="1" parent="1">
          <mxGeometry x="910" y="290" width="180" height="60" as="geometry" />
        </mxCell>
        <mxCell id="FnMIgnsUQWjK0R4eYY1A-41" value="Dashboard" style="rounded=1;whiteSpace=wrap;html=1;fontSize=20;" vertex="1" parent="1">
          <mxGeometry x="910" y="385" width="180" height="60" as="geometry" />
        </mxCell>
        <mxCell id="FnMIgnsUQWjK0R4eYY1A-42" value="Web service" style="rounded=1;whiteSpace=wrap;html=1;fontSize=20;" vertex="1" parent="1">
          <mxGeometry x="910" y="475" width="180" height="60" as="geometry" />
        </mxCell>
        <mxCell id="FnMIgnsUQWjK0R4eYY1A-43" value="Phân tích nâng cao" style="rounded=1;whiteSpace=wrap;html=1;fontSize=20;" vertex="1" parent="1">
          <mxGeometry x="910" y="555" width="180" height="60" as="geometry" />
        </mxCell>
        <mxCell id="FnMIgnsUQWjK0R4eYY1A-49" value="ETL" style="edgeStyle=orthogonalEdgeStyle;rounded=0;orthogonalLoop=1;jettySize=auto;html=1;entryX=0.5;entryY=0;entryDx=0;entryDy=0;" edge="1" parent="1" source="FnMIgnsUQWjK0R4eYY1A-48">
          <mxGeometry relative="1" as="geometry">
            <mxPoint x="475" y="510" as="targetPoint" />
          </mxGeometry>
        </mxCell>
        <mxCell id="FnMIgnsUQWjK0R4eYY1A-51" value="ETL" style="edgeStyle=orthogonalEdgeStyle;rounded=0;orthogonalLoop=1;jettySize=auto;html=1;entryX=-0.021;entryY=0.188;entryDx=0;entryDy=0;entryPerimeter=0;" edge="1" parent="1" source="FnMIgnsUQWjK0R4eYY1A-48" target="FnMIgnsUQWjK0R4eYY1A-50">
          <mxGeometry relative="1" as="geometry" />
        </mxCell>
        <mxCell id="FnMIgnsUQWjK0R4eYY1A-48" value="&lt;span style=&quot;font-size: 15px;&quot;&gt;staging area&lt;/span&gt;" style="rounded=1;whiteSpace=wrap;html=1;fillColor=#f5f5f5;gradientColor=#b3b3b3;strokeColor=#666666;" vertex="1" parent="1">
          <mxGeometry x="430" y="385" width="90" height="60" as="geometry" />
        </mxCell>
        <mxCell id="FnMIgnsUQWjK0R4eYY1A-50" value="Kho dữ liệu" style="rounded=1;whiteSpace=wrap;html=1;fillColor=#f5f5f5;gradientColor=#b3b3b3;strokeColor=#666666;" vertex="1" parent="1">
          <mxGeometry x="570" y="385" width="90" height="175" as="geometry" />
        </mxCell>
        <mxCell id="FnMIgnsUQWjK0R4eYY1A-54" value="ETL" style="edgeStyle=orthogonalEdgeStyle;rounded=0;orthogonalLoop=1;jettySize=auto;html=1;" edge="1" parent="1" source="FnMIgnsUQWjK0R4eYY1A-53" target="FnMIgnsUQWjK0R4eYY1A-50">
          <mxGeometry relative="1" as="geometry" />
        </mxCell>
        <mxCell id="FnMIgnsUQWjK0R4eYY1A-53" value="&lt;span style=&quot;font-size:14.0pt;font-family:&amp;quot;Times New Roman&amp;quot;,serif;&lt;br/&gt;mso-fareast-font-family:&amp;quot;Times New Roman&amp;quot;;mso-ansi-language:EN-US;mso-fareast-language:&lt;br/&gt;EN-US;mso-bidi-language:AR-SA&quot;&gt;Kho dữ liệu hoạt động (ODS)&lt;/span&gt;" style="rounded=0;whiteSpace=wrap;html=1;fontSize=15;fillColor=#d5e8d4;gradientColor=#97d077;strokeColor=#82b366;" vertex="1" parent="1">
          <mxGeometry x="435" y="510" width="85" height="100" as="geometry" />
        </mxCell>
        <mxCell id="FnMIgnsUQWjK0R4eYY1A-55" value="Data mart" style="rounded=1;whiteSpace=wrap;html=1;fillColor=#ffcd28;gradientColor=#ffa500;strokeColor=#d79b00;" vertex="1" parent="1">
          <mxGeometry x="710" y="402.5" width="95" height="60" as="geometry" />
        </mxCell>
        <mxCell id="FnMIgnsUQWjK0R4eYY1A-56" value="Data mart" style="rounded=1;whiteSpace=wrap;html=1;fillColor=#ffcd28;gradientColor=#ffa500;strokeColor=#d79b00;" vertex="1" parent="1">
          <mxGeometry x="710" y="490" width="95" height="60" as="geometry" />
        </mxCell>
        <mxCell id="FnMIgnsUQWjK0R4eYY1A-58" value="ETL" style="endArrow=classic;html=1;rounded=0;exitX=1;exitY=0.25;exitDx=0;exitDy=0;" edge="1" parent="1" source="FnMIgnsUQWjK0R4eYY1A-50">
          <mxGeometry width="50" height="50" relative="1" as="geometry">
            <mxPoint x="660" y="480" as="sourcePoint" />
            <mxPoint x="710" y="430" as="targetPoint" />
          </mxGeometry>
        </mxCell>
        <mxCell id="FnMIgnsUQWjK0R4eYY1A-59" value="ETL" style="endArrow=classic;html=1;rounded=0;exitX=1;exitY=0.25;exitDx=0;exitDy=0;" edge="1" parent="1">
          <mxGeometry width="50" height="50" relative="1" as="geometry">
            <mxPoint x="660" y="518.75" as="sourcePoint" />
            <mxPoint x="710" y="520" as="targetPoint" />
          </mxGeometry>
        </mxCell>
        <mxCell id="FnMIgnsUQWjK0R4eYY1A-62" value="" style="endArrow=classic;html=1;rounded=0;exitX=0.995;exitY=0.099;exitDx=0;exitDy=0;exitPerimeter=0;" edge="1" parent="1">
          <mxGeometry width="50" height="50" relative="1" as="geometry">
            <mxPoint x="659.5499999999997" y="392.3250000000003" as="sourcePoint" />
            <mxPoint x="900" y="392" as="targetPoint" />
          </mxGeometry>
        </mxCell>
        <mxCell id="FnMIgnsUQWjK0R4eYY1A-63" value="ETL" style="edgeLabel;html=1;align=center;verticalAlign=middle;resizable=0;points=[];" vertex="1" connectable="0" parent="FnMIgnsUQWjK0R4eYY1A-62">
          <mxGeometry x="0.5556" y="6" relative="1" as="geometry">
            <mxPoint as="offset" />
          </mxGeometry>
        </mxCell>
        <mxCell id="FnMIgnsUQWjK0R4eYY1A-64" value="ETL" style="endArrow=classic;html=1;rounded=0;entryX=0;entryY=0.5;entryDx=0;entryDy=0;exitX=1;exitY=0.5;exitDx=0;exitDy=0;" edge="1" parent="1" source="FnMIgnsUQWjK0R4eYY1A-55" target="FnMIgnsUQWjK0R4eYY1A-38">
          <mxGeometry width="50" height="50" relative="1" as="geometry">
            <mxPoint x="800" y="480" as="sourcePoint" />
            <mxPoint x="850" y="430" as="targetPoint" />
          </mxGeometry>
        </mxCell>
        <mxCell id="FnMIgnsUQWjK0R4eYY1A-65" value="ETL" style="endArrow=classic;html=1;rounded=0;entryX=0;entryY=0.5;entryDx=0;entryDy=0;exitX=1;exitY=0.5;exitDx=0;exitDy=0;" edge="1" parent="1">
          <mxGeometry width="50" height="50" relative="1" as="geometry">
            <mxPoint x="805" y="522.5" as="sourcePoint" />
            <mxPoint x="900" y="522.5" as="targetPoint" />
          </mxGeometry>
        </mxCell>
        <mxCell id="FnMIgnsUQWjK0R4eYY1A-66" value="" style="endArrow=classic;html=1;rounded=0;exitX=1;exitY=0.75;exitDx=0;exitDy=0;entryX=-0.018;entryY=0.887;entryDx=0;entryDy=0;entryPerimeter=0;" edge="1" parent="1" source="FnMIgnsUQWjK0R4eYY1A-53" target="FnMIgnsUQWjK0R4eYY1A-38">
          <mxGeometry width="50" height="50" relative="1" as="geometry">
            <mxPoint x="780" y="740" as="sourcePoint" />
            <mxPoint x="830" y="690" as="targetPoint" />
          </mxGeometry>
        </mxCell>
        <mxCell id="FnMIgnsUQWjK0R4eYY1A-67" value="ETL" style="edgeLabel;html=1;align=center;verticalAlign=middle;resizable=0;points=[];" vertex="1" connectable="0" parent="FnMIgnsUQWjK0R4eYY1A-66">
          <mxGeometry x="0.4456" y="-5" relative="1" as="geometry">
            <mxPoint x="-1" as="offset" />
          </mxGeometry>
        </mxCell>
      </root>
    </mxGraphModel>
  </diagram>
</mxfile>
